<?xml version="1.0" encoding="UTF-8" standalone="no"?>
<!-- Created with Inkscape (http://www.inkscape.org/) -->

<svg
   xmlns:dc="http://purl.org/dc/elements/1.1/"
   xmlns:cc="http://creativecommons.org/ns#"
   xmlns:rdf="http://www.w3.org/1999/02/22-rdf-syntax-ns#"
   xmlns:svg="http://www.w3.org/2000/svg"
   xmlns="http://www.w3.org/2000/svg"
   xmlns:sodipodi="http://sodipodi.sourceforge.net/DTD/sodipodi-0.dtd"
   xmlns:inkscape="http://www.inkscape.org/namespaces/inkscape"
   width="744.09448819"
   height="1052.3622047"
   id="svg2"
   version="1.1"
   inkscape:version="0.48.1 r9760"
   sodipodi:docname="New document 1">
  <defs
     id="defs4" />
  <sodipodi:namedview
     id="base"
     pagecolor="#ffffff"
     bordercolor="#666666"
     borderopacity="1.0"
     inkscape:pageopacity="0.0"
     inkscape:pageshadow="2"
     inkscape:zoom="0.175"
     inkscape:cx="-775.54638"
     inkscape:cy="-4861.7744"
     inkscape:document-units="px"
     inkscape:current-layer="layer1"
     showgrid="false"
     inkscape:window-width="1440"
     inkscape:window-height="852"
     inkscape:window-x="0"
     inkscape:window-y="0"
     inkscape:window-maximized="1" />
  <metadata
     id="metadata7">
    <rdf:RDF>
      <cc:Work
         rdf:about="">
        <dc:format>image/svg+xml</dc:format>
        <dc:type
           rdf:resource="http://purl.org/dc/dcmitype/StillImage" />
        <dc:title></dc:title>
      </cc:Work>
    </rdf:RDF>
  </metadata>
  <g
     inkscape:label="Layer 1"
     inkscape:groupmode="layer"
     id="layer1">
    <flowRoot
       xml:space="preserve"
       id="flowRoot2985"
       style="fill:black;stroke:none;stroke-opacity:1;stroke-width:1px;stroke-linejoin:miter;stroke-linecap:butt;fill-opacity:1;font-family:Sans;font-style:normal;font-weight:normal;font-size:40px;line-height:125%;letter-spacing:0px;word-spacing:0px"><flowRegion
         id="flowRegion2987"><rect
           id="rect2989"
           width="2111.4285"
           height="840"
           x="-1362.8572"
           y="6926.6479" /></flowRegion><flowPara
         id="flowPara2991"></flowPara></flowRoot>    <text
       xml:space="preserve"
       style="font-size:400px;font-style:normal;font-variant:normal;font-weight:bold;font-stretch:normal;line-height:125%;letter-spacing:0px;word-spacing:0px;fill:#000000;fill-opacity:1;stroke:none;font-family:Impact;-inkscape-font-specification:Impact Bold"
       x="-1028.5714"
       y="7086.6479"
       id="text2993"
       sodipodi:linespacing="125%"><tspan
         sodipodi:role="line"
         id="tspan2995"
         x="-1028.5714"
         y="7086.6479">Fork</tspan><tspan
         sodipodi:role="line"
         x="-1028.5714"
         y="7586.6479"
         id="tspan2997"></tspan><tspan
         sodipodi:role="line"
         x="-1028.5714"
         y="8086.6479"
         id="tspan2999"></tspan><tspan
         sodipodi:role="line"
         x="-1028.5714"
         y="8586.6484"
         id="tspan3001"></tspan><tspan
         sodipodi:role="line"
         x="-1028.5714"
         y="9086.6475"
         id="tspan3003">Tube</tspan></text>
    <flowRoot
       xml:space="preserve"
       id="flowRoot3005"
       style="font-size:600px;font-style:normal;font-variant:normal;font-weight:normal;font-stretch:normal;line-height:125%;letter-spacing:0px;word-spacing:0px;fill:#000000;fill-opacity:1;stroke:none;font-family:Sans;-inkscape-font-specification:Terminal"
       transform="translate(1828.5714,145.14286)"
       inkscape:export-filename="/Users/tuttle/Pictures/forktube2.png"
       inkscape:export-xdpi="16.549999"
       inkscape:export-ydpi="16.549999"><flowRegion
         id="flowRegion3007"><rect
           id="rect3009"
           width="2437.1428"
           height="894.28571"
           x="-1405.7142"
           y="5503.7905"
           style="font-size:600px;font-style:normal;font-variant:normal;font-weight:normal;font-stretch:normal;font-family:Sans;-inkscape-font-specification:Terminal" /></flowRegion><flowPara
         id="flowPara3011"
         style="font-style:normal;font-variant:normal;font-weight:bold;font-stretch:normal;font-family:STHeiti;-inkscape-font-specification:STHeiti Bold">TUBE</flowPara></flowRoot>    <flowRoot
       xml:space="preserve"
       id="flowRoot3013"
       style="font-size:400px;font-style:normal;font-variant:normal;font-weight:normal;font-stretch:normal;line-height:125%;letter-spacing:0px;word-spacing:0px;opacity:0.98999999;fill:#000000;fill-opacity:1;stroke:none;font-family:Raanana;-inkscape-font-specification:Raanana"
       transform="translate(151.42857,25.714286)"
       inkscape:export-filename="/Users/tuttle/Pictures/forktube2.png"
       inkscape:export-xdpi="16.549999"
       inkscape:export-ydpi="16.549999"><flowRegion
         id="flowRegion3015"><rect
           id="rect3017"
           width="2477.1428"
           height="1379.9998"
           x="-1740"
           y="5592.3623"
           style="font-size:400px;font-style:normal;font-variant:normal;font-weight:normal;font-stretch:normal;font-family:Raanana;-inkscape-font-specification:Raanana" /></flowRegion><flowPara
         id="flowPara3019"
         style="font-size:650px;font-style:normal;font-variant:normal;font-weight:bold;font-stretch:normal;font-family:Gill Sans;-inkscape-font-specification:Gill Sans Bold">FORK</flowPara></flowRoot>    <path
       style="fill:none;stroke:#000000;stroke-width:1.09187317px;stroke-linecap:butt;stroke-linejoin:miter;stroke-opacity:1"
       d="m 194.33164,6241.6938 136.0545,184.9081 1395.28216,0"
       id="path3021"
       inkscape:connector-curvature="0"
       inkscape:export-filename="/Users/tuttle/Pictures/forktube2.png"
       inkscape:export-xdpi="16.549999"
       inkscape:export-ydpi="16.549999" />
    <path
       style="fill:none;stroke:#000000;stroke-width:1.01817441px;stroke-linecap:butt;stroke-linejoin:miter;stroke-opacity:1"
       d="m 367.15195,6258.0856 65.78271,68.0537 1289.91334,0 0,97.6424"
       id="path3023"
       inkscape:connector-curvature="0"
       inkscape:export-filename="/Users/tuttle/Pictures/forktube2.png"
       inkscape:export-xdpi="16.549999"
       inkscape:export-ydpi="16.549999" />
    <path
       style="opacity:0.98999999"
       d="m 265.02343,6342.5945 c -32.24168,-46.0414 -58.62124,-83.9979 -58.62124,-84.3477 0,-0.35 36.06676,-0.6363 80.14836,-0.6363 l 80.14835,0 29.12288,31.7755 29.12289,31.7754 600.36093,0.054 600.3609,0.054 0,52.5184 0,52.5185 -651.01091,0 -651.01092,0 -58.62124,-83.7115 0,0 z"
       id="path3035"
       inkscape:connector-curvature="0"
       inkscape:export-filename="/Users/tuttle/Pictures/forktube2.png"
       inkscape:export-xdpi="16.549999"
       inkscape:export-ydpi="16.549999" />
    <path
       style="fill:none;stroke:#000000;stroke-width:1px;stroke-linecap:butt;stroke-linejoin:miter;stroke-opacity:1"
       d="m 1625.7143,6319.505 97.1428,0"
       id="path3039"
       inkscape:connector-curvature="0"
       inkscape:export-filename="/Users/tuttle/Pictures/forktube2.png"
       inkscape:export-xdpi="16.549999"
       inkscape:export-ydpi="16.549999" />
    <path
       sodipodi:type="arc"
       id="path3041"
       style="fill:#000000;stroke:none"
       sodipodi:cx="1727.1429"
       sodipodi:cy="6425.2192"
       sodipodi:rx="1.5"
       sodipodi:ry="1.5"
       d="m 1728.6429,6425.2192 a 1.5,1.5 0 1 1 -3,0 1.5,1.5 0 1 1 3,0 z"
       inkscape:export-filename="/Users/tuttle/Pictures/forktube2.png"
       inkscape:export-xdpi="16.549999"
       inkscape:export-ydpi="16.549999" />
    <path
       sodipodi:type="arc"
       id="path3043"
       style="fill:#000000;stroke:none"
       sodipodi:cx="1615.7144"
       sodipodi:cy="6425.2192"
       sodipodi:rx="1.5"
       sodipodi:ry="1.5"
       d="m 1617.2144,6425.2192 a 1.5,1.5 0 1 1 -3,0 1.5,1.5 0 1 1 3,0 z"
       inkscape:export-filename="/Users/tuttle/Pictures/forktube2.png"
       inkscape:export-xdpi="16.549999"
       inkscape:export-ydpi="16.549999" />
    <path
       style="fill:none;stroke:#000000;stroke-width:1px;stroke-linecap:butt;stroke-linejoin:miter;stroke-opacity:1"
       d="m 1718.5714,6318.0765 0,108.5714"
       id="path3045"
       inkscape:connector-curvature="0"
       inkscape:export-filename="/Users/tuttle/Pictures/forktube2.png"
       inkscape:export-xdpi="16.549999"
       inkscape:export-ydpi="16.549999" />
    <path
       style="opacity:0.98999999"
       d="m 1626.6428,6376.9006 0,-49.2857 45.7143,0 45.7143,0 0,49.2857 0,49.2858 -45.7143,0 -45.7143,0 0,-49.2858 z"
       id="path3049"
       inkscape:connector-curvature="0"
       inkscape:export-filename="/Users/tuttle/Pictures/forktube2.png"
       inkscape:export-xdpi="16.549999"
       inkscape:export-ydpi="16.549999" />
    <path
       style="opacity:0.98999999"
       d="m -87.821479,5826.1864 c 0.119047,146.7015 -0.238093,293.6003 0.178572,440.1785 43.844397,-0.119 87.88602267,0.2381 131.607143,-0.1785 0.237128,-68.5417 0.475213,-137.0834 0.714285,-205.625 56.935229,70.6994 116.032129,139.7043 170.799669,212.0005 36.75077,49.7293 70.44883,102.0353 107.36997,151.3923 5.54465,6.2101 15.62559,1.3393 22.85713,2.9531 456.41283,0.6683 912.82821,0.7154 1369.24081,-0.019 13.3803,1.8869 1.6066,-2.0422 4.7324,-11.0149 0.6466,-31.7384 -1.4225,-63.7248 1.4286,-95.3125 0.6631,-2.4428 -6.976,-0.2389 -8.5713,-1.1386 -28.7513,-0.1359 -58.4524,-0.4123 -86.6073,0.4689 30.6547,0.2671 61.3096,0.5349 91.9643,0.8036 3.1719,11.6094 -11.805,5.07 -18.5714,6.7411 -24.2462,0.119 -48.6896,-0.2382 -72.8126,0.1785 -0.1974,24.6131 -0.4064,49.2261 -0.5803,73.8393 -0.2914,-26.5526 -0.1205,-53.3029 -0.7143,-79.7321 -399.5362,-0.2389 -799.09211,-0.105 -1198.61604,-0.625 -48.39977,-47.6547 -89.95745,-101.7033 -133.0647,-154.0885 -36.29867,-45.0066 -73.46852,-89.6898 -108.76565,-135.1972 53.24883,-69.1554 108.21654,-136.9703 162.27678,-205.4911 -47.67091,-0.6317 -96.14671,-0.05 -144.10714,-0.1339 -52.73774,65.2504 -105.490586,130.4886 -158.258929,195.7142 -0.358232,-65.2728 -0.241094,-130.7431 -0.892857,-195.8928 -43.84411404,0.1189 -87.886425,-0.2379 -131.607143,0.1786 z"
       id="path3051"
       inkscape:connector-curvature="0"
       inkscape:export-filename="/Users/tuttle/Pictures/forktube2.png"
       inkscape:export-xdpi="16.549999"
       inkscape:export-ydpi="16.549999" />
    <path
       style="opacity:0.98999999"
       d="m -89.25005,5826.1864 c -0.03557,146.704 0.798613,293.6014 2.098214,440.1785 43.68061,-0.1192 87.55866167,0.2382 131.116072,-0.1785 0.37029,-67.8952 -0.901296,-135.8488 1.160714,-203.7054 53.565614,63.5719 105.95546,128.3249 157.3775,193.5071 41.46303,54.458 78.42894,112.2536 119.67607,166.8054 5.17023,7.9923 16.21972,2.4205 23.92854,4.121 458.77898,0.9504 917.55954,0.6496 1376.33934,0.879 -4.8553,-12.1079 -1.6272,-26.7094 -2.655,-39.7321 -0.011,-23.0419 0.6447,-46.2787 0.4228,-69.1965 -30.831,0.4863 -62.6197,-0 -92.8571,1.0268 30.2233,0.2668 60.4464,0.5347 90.6697,0.8036 1.2766,10.8917 -12.7944,4.2972 -19.4191,6.1737 -23.9935,0.2978 -48.1845,0.1656 -72.0542,0.7906 -0.2238,9.4791 -0.4494,18.9582 -0.6695,28.4375 -0.286,-11.2688 -0.093,-22.739 -0.6698,-33.884 -399.7023,-0.6249 -799.40472,-1.2499 -1199.10711,-1.875 -10.29664,-9.7485 -19.91731,-19.9509 -28.61607,-30.7589 -43.20847,-45.9515 -81.4063,-96.32 -121.6533,-144.8301 -29.90577,-37.6696 -61.53561,-74.0388 -89.64134,-112.9377 2.93168,-7.1255 10.27458,-13.4284 14.68843,-20.1977 47.88461,-61.6112 97.1717,-122.5331 144.90978,-183.9988 -23.26817,-2.8658 -47.26533,-0.9849 -70.80357,-1.6071 -24.04518,0.03 -48.10976,-0.06 -72.14286,0.045 -52.55487,64.5483 -104.65601,130.5897 -157.901781,193.884 -1.846068,-64.5952 -0.451888,-129.4359 -1.160715,-193.9286 -44.32007261,0.1194 -88.838833,-0.2379 -133.035714,0.1786 z"
       id="path3053"
       inkscape:connector-curvature="0"
       inkscape:export-filename="/Users/tuttle/Pictures/forktube2.png"
       inkscape:export-xdpi="16.549999"
       inkscape:export-ydpi="16.549999" />
    <path
       style="opacity:0.98999999"
       d="m -89.25005,5826.1864 c 0.365469,146.7009 -1.050953,293.6172 2.053571,440.1785 43.6955,-0.1192 87.58843182,0.2382 131.160715,-0.1785 0.356993,-67.5158 -0.31445,-135.0604 2.142857,-202.5447 59.295527,72.6498 119.972887,144.2132 176.016617,219.3266 34.55474,47.1348 66.40841,96.6605 102.37624,142.5038 6.19546,3.6511 15.12476,0.2765 22.23211,1.4918 458.60039,0.9643 917.20244,0.5676 1375.80364,0.8296 -3.4357,-17.5333 -1.3349,-36.471 -2.0983,-54.5089 -0.1186,-18.1154 0.2384,-36.4278 -0.1786,-54.4197 -30.8458,0.4864 -62.6494,-0 -92.9017,1.0268 29.8659,0.8777 59.967,-0.7753 89.6874,2.0089 2.9932,2.9636 -4.2408,5.3202 -6.6071,4.7322 -27.9,0.576 -56.012,0.2457 -83.7946,0.9821 -1.0381,13.5554 -0.9123,0.4086 -1.4286,-5.4018 -399.7602,-1.4227 -799.52284,-2.1561 -1199.28568,-1.9196 -7.35931,-6.8642 -13.81171,-14.0554 -19.19643,-22.0089 -53.74388,-55.423 -100.15238,-117.3225 -149.32663,-176.7068 -23.64557,-30.0281 -48.9572,-58.7218 -70.58408,-90.1682 41.49521,-56.0881 86.044,-110.0592 129.07097,-165.0501 9.83256,-12.8918 20.95227,-25.5575 29.90224,-38.6999 -21.8496,-2.9182 -44.5058,-1.0042 -66.65178,-1.6518 -25.50356,0.03 -51.02639,-0.06 -76.51786,0.045 -52.08921,64.2789 -103.990629,128.7117 -156.517857,192.634 -2.734074,-64.1644 -1.472422,-128.6001 -2.321429,-192.6786 -44.32007261,0.1194 -88.838833,-0.2379 -133.035714,0.1786 z"
       id="path3055"
       inkscape:connector-curvature="0"
       inkscape:export-filename="/Users/tuttle/Pictures/forktube2.png"
       inkscape:export-xdpi="16.549999"
       inkscape:export-ydpi="16.549999" />
    <path
       style="opacity:0.98999999"
       d="m 1640.8392,6320.3828 c -4.3502,1.0725 -12.1161,-1.7425 -14.9553,2.0982 5.6563,3.9654 14.5184,1.3715 21.2498,2.3515 23.1571,-0.2077 46.8383,1.0129 69.6877,-1.2801 -9.716,-3.7222 -21.7216,-2.0501 -32.2764,-2.9957 -14.5664,-0.2897 -29.1377,-0.3563 -43.7058,-0.1739 z"
       id="path3057"
       inkscape:connector-curvature="0"
       inkscape:export-filename="/Users/tuttle/Pictures/forktube2.png"
       inkscape:export-xdpi="16.549999"
       inkscape:export-ydpi="16.549999" />
    <path
       style="opacity:0.98999999"
       d="m -89.25005,5826.1864 c 0.344805,140.6362 -0.859208,281.2931 1.162466,421.9152 1.852488,6.8684 -4.074427,21.9578 8.033962,18.2633 41.195418,-0.1194 82.5884862,0.2383 123.660715,-0.1785 1.014963,-67.0402 0.630454,-134.6561 2.901786,-201.3393 43.097842,51.1798 85.471431,104.0295 127.440431,156.3047 51.39865,63.0905 95.7654,131.4029 144.1777,196.7111 3.7172,4.2803 6.89797,11.353 13.91757,9.0431 446.26387,0.8715 892.53022,0.6714 1338.79462,0.2971 17.6499,-0.4771 36.9849,0.8177 53.6608,-0.7935 -2.5306,-32.9517 -0.2593,-67.0637 -1.5179,-99.509 -0.4114,24.4347 -0.8129,48.8694 -1.25,73.3036 -0.07,-27.0882 0.3047,-54.3745 -0.089,-81.3393 -31.4328,0.6292 -63.0578,-1.3596 -94.375,1.2947 -1.0367,4.7502 7.1363,4.2105 10.2679,4.3303 26.6855,0.6233 53.6695,0.6705 80.134,-1.6964 0.2453,3.4605 -7.7547,2.2995 -10.0416,2.9075 -26.9944,0.3135 -54.0871,2.0575 -81.0299,1.6461 -3.15,-0.9433 1.1865,-7.3085 -4.2411,-5.1487 -398.1053,-2.4374 -796.21995,-1.7976 -1194.33036,-1.9049 -9.1991,-5.2363 -12.86959,-15.1483 -20.89286,-22.0089 -55.95346,-58.1846 -104.72856,-122.697 -156.07143,-184.8661 -21.0735,-26.945 -43.89564,-52.7102 -62.63393,-81.4286 -2.13666,-4.7209 6.17,-7.9383 7.31803,-12.1787 49.30511,-64.5482 100.71669,-127.5637 150.22661,-191.8838 -9.74347,-2.9764 -21.54284,-1.0102 -31.96407,-1.8023 -37.2144,-0.2104 -74.44915,-0.1224 -111.652,-0.073 -51.93685,63.7679 -103.583711,128.2997 -155.848211,191.4732 -2.182926,-55.8283 -1.791882,-112.6335 -2.704108,-168.835 -2.032854,-6.6145 3.757206,-20.9642 -3.278035,-22.6828 -43.2336975,0.1195 -86.666242,-0.238 -129.776786,0.1786 z"
       id="path3059"
       inkscape:connector-curvature="0"
       inkscape:export-filename="/Users/tuttle/Pictures/forktube2.png"
       inkscape:export-xdpi="16.549999"
       inkscape:export-ydpi="16.549999" />
    <path
       style="opacity:0.98999999"
       d="m -89.25005,5826.1864 c 0.253773,145.6083 -0.633815,291.2326 0.892857,436.8303 2.526716,7.6496 15.733441,1.2545 22.455357,3.3482 36.448417,-0.1194 73.094506,0.2385 109.419643,-0.1785 2.059786,-63.9834 1.173437,-128.0356 3.252522,-192.0033 -1.316596,-15.6864 7.587021,1.7681 12.508421,6.3095 72.1387,87.6535 144.75746,174.8539 209.04943,268.5436 18.75194,25.8424 36.27438,52.814 56.66284,77.3287 165.33993,1.605 330.71666,1.0152 496.07143,1.3233 301.18075,-0.011 602.55865,0.3079 903.61605,-0.073 -0.8007,-29.3267 0.02,-59.6699 -1.875,-88.3928 -0.6944,9.1414 -0.7194,18.3697 -1.1161,27.5446 -0.085,-15.9422 0.3271,-32.0831 -0.045,-47.9018 -31.2368,0.6469 -62.6834,-1.3717 -93.7946,1.25 -3.2297,3.1999 4.7842,5.6041 7.0982,4.5536 25.519,0.719 54.0728,-0.7274 77.7678,0.2679 -28.4774,0.9417 -57.1607,2.8731 -85.5802,1.116 -4.5822,-5.2747 -13.7956,-2.481 -20.268,-3.616 -185.8182,-2.5774 -371.6676,-1.6538 -557.5,-2.1208 -200.54952,-0.4452 -401.10864,0.7181 -601.65176,-0.9596 -8.74405,-1.5008 -20.86676,3.1156 -26.42858,-6.2054 -66.95194,-69.3833 -125.76068,-145.961 -186.70591,-220.5254 -15.74539,-20.2107 -33.08664,-40.0906 -46.24051,-61.9746 51.10782,-68.5698 105.7713,-134.6396 157.54464,-202.6339 -8.05917,-3.222 -18.5627,-0.9878 -27.41072,-1.8303 -38.98537,-0.1749 -77.99071,-0.066 -116.96428,0.045 -50.96359,63.6369 -102.563359,126.7603 -154.017859,190 -3.493928,-43.2672 -1.427605,-86.8046 -2.921702,-130.1767 -0.432596,-19.9924 -0.47746,-40.1783 -1.230083,-60.0465 -44.17121461,0.1195 -88.541189,-0.2379 -132.589286,0.1786 z"
       id="path3061"
       inkscape:connector-curvature="0"
       inkscape:export-filename="/Users/tuttle/Pictures/forktube2.png"
       inkscape:export-xdpi="16.549999"
       inkscape:export-ydpi="16.549999" />
    <path
       style="opacity:0.98999999"
       d="m -89.25005,5826.1864 c 0.357066,146.4634 0.238941,293.1241 0.892857,439.4642 43.93349,0.1092 88.06464153,0.7236 131.875,0.5804 3.65833,-65.8786 -0.311248,-132.02 4.508929,-197.8125 19.267771,20.7235 37.403828,44.5876 55.905824,66.7768 59.33516,72.5719 117.58392,145.9663 170.82252,223.241 16.88666,22.719 32.07194,47.345 50.68237,68.4197 457.7803,1.3251 915.56575,0.6161 1373.34825,0.9326 8.6041,-0.1226 17.4127,0.2483 25.8928,-0.1737 -0.7741,-36.218 0.5989,-72.727 -2.5445,-108.75 -31.5468,0.6486 -63.3198,-1.377 -94.7323,1.25 -3.0425,2.1265 0.8824,5.7169 3.8831,3.9352 17.8826,0.6314 35.773,1.0079 53.6616,1.422 -19.4714,-0.6211 -39.397,2.0478 -58.6162,-0.9822 -5.213,-4.3536 -13.9388,-1.152 -20.2677,-2.5 -190.0053,-1.9428 -380.0307,-1.1486 -570.0446,-1.6844 -202.72322,-0.2419 -405.44648,-0.4842 -608.16974,-0.7263 -74.61212,-77.2363 -140.56325,-162.3996 -207.74668,-245.8632 -11.1,-13.955 -21.94136,-28.1267 -31.76224,-43.0207 51.67904,-68.0391 105.69974,-134.413 157.36607,-202.3661 -3.54076,-3.6808 -11.54827,-1.0607 -16.47273,-2.106 -42.56992,-0.4272 -85.1639,-0.1549 -127.7237,-0.1261 -51.19684,63.3595 -102.547401,126.5946 -154.017859,189.7321 -3.318237,-63.1932 -1.091662,-126.7206 -4.151785,-189.8214 -44.17121461,0.1195 -88.541189,-0.2379 -132.589286,0.1786 z"
       id="path3063"
       inkscape:connector-curvature="0"
       inkscape:export-filename="/Users/tuttle/Pictures/forktube2.png"
       inkscape:export-xdpi="16.549999"
       inkscape:export-ydpi="16.549999" />
    <path
       style="opacity:0.98999999"
       d="m -87.29066,6257.9257 c 0.357066,-146.4634 0.238941,-293.1241 0.892857,-439.4642 43.978146,-0.1091 88.1539471,-0.7235 132.008929,-0.5804 3.089623,64.4238 1.164085,129.0422 4.538091,193.415 1.855752,7.7082 10.564352,-10.485 15.320652,-13.7399 80.281031,-95.5293 157.033501,-193.9403 228.398081,-296.4004 11.11465,-14.3482 20.4891,-30.7583 33.30568,-43.4086 187.08658,-1.7164 374.19784,-1.055 561.29464,-1.3449 279.54383,0.04 559.28483,-0.29 838.70533,0.095 -1.0915,35.6635 0.2538,71.5285 -3.0802,107.0535 -2.1925,4.4966 -10.0229,0.5583 -14.0175,2.0288 -26.771,-0.3398 -53.7721,1.003 -80.4023,-1.493 -2.0032,-0.5432 0.3423,-6.9284 -2.5,-3.3483 -5.1964,2.6075 -13.1865,0.4441 -19.1957,1.3735 -260.5281,2.1237 -521.0726,1.4033 -781.60767,2.2292 -132.18502,0.5051 -264.51123,0.1039 -396.60732,1.6206 -48.21411,47.4941 -90.55536,100.6168 -133.7128,152.6766 -35.08653,43.8322 -71.39086,86.7758 -103.51934,132.9037 -2.83837,4.694 5.28993,8.495 6.52884,12.6592 49.14033,64.8934 100.7694,128.0262 149.72116,192.9658 -48.17719,1.7763 -97.12963,0.6142 -145.58036,0.8929 -49.36943,-60.3095 -97.59988,-121.5784 -147.752327,-181.2305 -1.300429,-0.8695 -6.488414,-8.5397 -5.908386,-2.9213 -2.35162,61.2374 -2.292511,122.6484 -3.705357,183.8393 -44.3398545,0.4987 -88.900506,0.4858 -133.125,0.1785 z M 1654.1825,5758.9972 c 11.2769,0.025 6.1567,-0.5143 -2.0089,-0.3572 -12.0018,-0.084 -6.2328,0.2724 2.0089,0.3572 z"
       id="path3065"
       inkscape:connector-curvature="0"
       inkscape:export-filename="/Users/tuttle/Pictures/forktube2.png"
       inkscape:export-xdpi="16.549999"
       inkscape:export-ydpi="16.549999" />
  </g>
</svg>
